<svg xmlns="http://www.w3.org/2000/svg" viewBox="0 0 300 600">
  <!-- Esqueleto de vista anterior del cuerpo humano -->
  <g stroke="#000" stroke-width="1" fill="none">
    <!-- Cabeza -->
    <circle cx="150" cy="40" r="30" />
    <path d="M130,50 Q150,70 170,50" /> <!-- Línea de cuello -->
    
    <!-- Torso -->
    <path d="M120,80 L120,200 L130,230 L170,230 L180,200 L180,80 Z" />
    <line x1="120" y1="120" x2="180" y2="120" /> <!-- Línea de pecho -->
    <ellipse cx="135" cy="110" rx="5" ry="5" /> <!-- Pezón izquierdo -->
    <ellipse cx="165" cy="110" rx="5" ry="5" /> <!-- Pezón derecho -->
    <circle cx="150" cy="160" r="5" /> <!-- Ombligo -->
    
    <!-- Brazos -->
    <path d="M120,85 L90,150 L70,230" /> <!-- Brazo izquierdo -->
    <path d="M180,85 L210,150 L230,230" /> <!-- Brazo derecho -->
    
    <!-- Manos -->
    <path d="M70,230 L65,260" /> <!-- Mano izquierda -->
    <path d="M65,260 L60,270 L65,275 L70,270 L75,275 L80,270 L85,275 L90,270 L85,260" />
    <path d="M230,230 L235,260" /> <!-- Mano derecha -->
    <path d="M235,260 L240,270 L235,275 L230,270 L225,275 L220,270 L215,275 L210,270 L215,260" />
    
    <!-- Piernas -->
    <path d="M130,230 L120,380 L110,520" /> <!-- Pierna izquierda -->
    <path d="M170,230 L180,380 L190,520" /> <!-- Pierna derecha -->
    
    <!-- Pies -->
    <path d="M110,520 L90,535 L110,540" /> <!-- Pie izquierdo -->
    <path d="M190,520 L210,535 L190,540" /> <!-- Pie derecho -->
    
    <!-- Músculos y detalles anatómicos -->
    <path d="M120,85 Q150,95 180,85" /> <!-- Músculos del cuello -->
    <path d="M120,120 Q135,130 150,120 Q165,130 180,120" /> <!-- Pectorales -->
    <path d="M130,150 Q150,170 170,150" /> <!-- Abdominales superiores -->
    <path d="M130,180 Q150,200 170,180" /> <!-- Abdominales inferiores -->
    
    <!-- Músculos del brazo -->
    <path d="M120,85 Q110,110 100,135" /> <!-- Deltoides izquierdo -->
    <path d="M180,85 Q190,110 200,135" /> <!-- Deltoides derecho -->
    <path d="M100,135 Q95,160 90,185" /> <!-- Bíceps izquierdo -->
    <path d="M200,135 Q205,160 210,185" /> <!-- Bíceps derecho -->
    
    <!-- Músculos de la pierna -->
    <path d="M130,240 Q135,300 130,350" /> <!-- Cuádriceps izquierdo -->
    <path d="M170,240 Q165,300 170,350" /> <!-- Cuádriceps derecho -->
    <path d="M120,380 Q125,420 120,450" /> <!-- Tibia izquierda -->
    <path d="M180,380 Q175,420 180,450" /> <!-- Tibia derecha -->
  </g>
</svg>
